<?xml version="1.0" encoding="utf-8"?>
<!-- Generator: Adobe Illustrator 24.1.2, SVG Export Plug-In . SVG Version: 6.00 Build 0)  -->
<svg version="1.1" id="Layer_1" xmlns="http://www.w3.org/2000/svg" xmlns:xlink="http://www.w3.org/1999/xlink" x="0px" y="0px"
	 viewBox="0 0 1920 1080" style="enable-background:new 0 0 1920 1080;" xml:space="preserve">
<style type="text/css">
	.st0{fill:#2E7D32;}
	.st1{fill:#FFFFFF;}
	.st2{fill:#81D653;}
	.st3{fill:url(#SVGID_1_);}
	.st4{fill:url(#SVGID_2_);}
	.st5{fill:#F2B13D;}
	.st6{fill:url(#SVGID_3_);}
	.st7{fill:url(#SVGID_4_);}
	.st8{fill:#EF6C00;}
</style>
<g>
	<g>
		<rect x="222" y="119.6" class="st0" width="1476" height="335"/>
		<g>
			<path class="st1" d="M373.4,377.9l-14.2,29H277l104.4-192.3h106l28.4,192.3h-79.5l-2.5-29H373.4z M429.2,327.7
				c-1.4-15.3-3-44.5-4.1-62.6h-1.9c-6.3,17.5-17.8,44.5-25.7,62.6H429.2z M530.5,162.4l-65.6,38h-64.5l47.8-38H530.5z"/>
			<path class="st1" d="M572.9,214.6h80.6l-30.1,141.8h94.3l-18.9,50.5H532.2L572.9,214.6z"/>
			<path class="st1" d="M946.9,333.4c-12.6,48.4-48.1,78.4-118,78.4c-72.4,0-100.3-38.5-100.3-85c0-48.4,27.3-117.2,125.7-117.2
				c70.5,0,100,32.8,100.3,77.6h-78.1c1.4-18.6-3.8-31.1-21.3-31.1c-32.5,0-41.5,52.5-41.5,74.3c0,21.6,7.9,32.5,23.2,32.5
				c14.2,0,26-8.2,33.9-29.5H946.9z"/>
			<path class="st1" d="M1202.6,296.5c0,65.6-43.2,115.3-129,115.3c-79,0-104.9-41.8-104.9-85.5c0-56.8,35.8-116.7,126.5-116.7
				C1173.1,209.6,1202.6,253.3,1202.6,296.5z M1053.7,330.1c0,16.7,4.6,32.8,23.2,32.8c32,0,41.3-50,41.3-76.2
				c0-18-6.6-30.3-24-30.3C1064.4,256.4,1053.7,305.8,1053.7,330.1z"/>
			<path class="st1" d="M1452.9,296.5c0,65.6-43.2,115.3-129,115.3c-79,0-104.9-41.8-104.9-85.5c0-56.8,35.8-116.7,126.5-116.7
				C1423.3,209.6,1452.9,253.3,1452.9,296.5z M1304,330.1c0,16.7,4.6,32.8,23.2,32.8c32,0,41.3-50,41.3-76.2c0-18-6.6-30.3-24-30.3
				C1314.6,256.4,1304,305.8,1304,330.1z"/>
			<path class="st1" d="M1498.2,214.6h80.6l-30.1,141.8h94.3l-18.9,50.5h-166.7L1498.2,214.6z"/>
		</g>
	</g>
	<g>
		<rect x="222" y="624.6" class="st2" width="1476" height="335"/>
		<g>
			<path class="st1" d="M373.4,882.9l-14.2,29H277l104.4-192.3h106l28.4,192.3h-79.5l-2.5-29H373.4z M429.2,832.7
				c-1.4-15.3-3-44.5-4.1-62.6h-1.9c-6.3,17.5-17.8,44.5-25.7,62.6H429.2z M530.5,667.4l-65.6,38h-64.5l47.8-38H530.5z"/>
			<path class="st1" d="M572.9,719.6h80.6l-30.1,141.8h94.3l-18.9,50.5H532.2L572.9,719.6z"/>
			<path class="st1" d="M946.9,838.4c-12.6,48.4-48.1,78.4-118,78.4c-72.4,0-100.3-38.5-100.3-85c0-48.4,27.3-117.2,125.7-117.2
				c70.5,0,100,32.8,100.3,77.6h-78.1c1.4-18.6-3.8-31.1-21.3-31.1c-32.5,0-41.5,52.5-41.5,74.3c0,21.6,7.9,32.5,23.2,32.5
				c14.2,0,26-8.2,33.9-29.5H946.9z"/>
			<path class="st1" d="M1202.6,801.5c0,65.6-43.2,115.3-129,115.3c-79,0-104.9-41.8-104.9-85.5c0-56.8,35.8-116.7,126.5-116.7
				C1173.1,714.6,1202.6,758.3,1202.6,801.5z M1053.7,835.1c0,16.7,4.6,32.8,23.2,32.8c32,0,41.3-50,41.3-76.2
				c0-18-6.6-30.3-24-30.3C1064.4,761.4,1053.7,810.8,1053.7,835.1z"/>
			<path class="st1" d="M1452.9,801.5c0,65.6-43.2,115.3-129,115.3c-79,0-104.9-41.8-104.9-85.5c0-56.8,35.8-116.7,126.5-116.7
				C1423.3,714.6,1452.9,758.3,1452.9,801.5z M1304,835.1c0,16.7,4.6,32.8,23.2,32.8c32,0,41.3-50,41.3-76.2c0-18-6.6-30.3-24-30.3
				C1314.6,761.4,1304,810.8,1304,835.1z"/>
			<path class="st1" d="M1498.2,719.6h80.6l-30.1,141.8h94.3l-18.9,50.5h-166.7L1498.2,719.6z"/>
		</g>
	</g>
	<g>
		<linearGradient id="SVGID_1_" gradientUnits="userSpaceOnUse" x1="844.3891" y1="447" x2="844.3891" y2="633">
			<stop  offset="0" style="stop-color:#F2B13D"/>
			<stop  offset="1" style="stop-color:#81D653"/>
		</linearGradient>
		<path class="st3" d="M952,526.9c0,60.3-39.7,106.1-118.6,106.1c-72.6,0-96.5-38.5-96.5-78.7c0-52.3,32.9-107.3,116.4-107.3
			C924.8,447,952,487.2,952,526.9z M815,557.8c0,15.3,4.3,30.2,21.4,30.2c29.4,0,38-46,38-70.1c0-16.6-6-27.9-22.1-27.9
			C824.8,490,815,535.5,815,557.8z"/>
		<linearGradient id="SVGID_2_" gradientUnits="userSpaceOnUse" x1="1075.0493" y1="451.5244" x2="1075.0493" y2="633">
			<stop  offset="0" style="stop-color:#F2B13D"/>
			<stop  offset="1" style="stop-color:#81D653"/>
		</linearGradient>
		<path class="st4" d="M1067.3,451.5l-23.1,107.3c-4.8,21.6,6.3,26.1,15.1,26.1c17.1,0,22.1-11.3,25.1-26.1l23.1-107.3h73.6
			l-22.9,106.3c-10.3,49.3-31.7,75.2-105.8,75.2c-63.6,0-92.5-24.6-81.2-76.7l22.4-104.8H1067.3z"/>
	</g>
	<g>
		<rect x="222" y="119.4" class="st5" width="1476" height="335"/>
		<g>
			<path class="st1" d="M436.7,364h-41.4c-1.1-3.5-1.3-8.5-1.3-12.5c-9.9,10.1-23.4,16.4-49.3,16.4c-48.2,0-67.5-31.5-67.5-67
				c0-46.4,30.5-95.1,100.8-95.1c46.7,0,77.6,17.5,80.6,51.5h-61.8c-0.7-7.4-5-14.2-18.4-14.2c-24.3,0-33.1,37-33.1,57
				c0,16.9,5.3,28.7,18.8,28.7c14.9,0,19.3-10.1,21.3-16l0.2-0.7h-22.8l12.7-39.7h80.4L436.7,364z"/>
			<path class="st1" d="M527.8,340.8L516.4,364h-65.9l83.7-154.2h85L641.9,364h-63.7l-2-23.2H527.8z M572.5,300.5
				c-1.1-12.3-2.4-35.7-3.3-50.2h-1.5c-5,14-14.2,35.7-20.6,50.2H572.5z"/>
			<path class="st1" d="M713.6,316.7c0.4,6.6,4.8,14.2,19.3,14.2c7.9,0,14-2.4,14-9.2c0-5.3-1.3-9.6-23.9-15.1
				c-42.7-10.5-54.1-25.6-54.1-46.9c0-34.6,32-53.9,75.4-53.9c50.6,0,76.5,18.6,77.6,49.3h-58.1c-0.7-6.6-3.7-12.7-15.6-12.7
				c-6.4,0-11.6,3.5-11.6,9.2c0,5.9,5.9,9.2,21,12.7c44.3,10.5,58.9,25.6,58.9,49.3c0,35.3-34.2,54.3-83.5,54.3
				c-50.2,0-76.2-18.2-79.7-51.3H713.6z"/>
			<path class="st1" d="M1018.9,275.5c0,52.6-34.6,92.4-103.4,92.4c-63.3,0-84.1-33.5-84.1-68.6c0-45.6,28.7-93.5,101.4-93.5
				C995.3,205.9,1018.9,240.9,1018.9,275.5z M899.5,302.5c0,13.4,3.7,26.3,18.6,26.3c25.6,0,33.1-40.1,33.1-61.1
				c0-14.5-5.3-24.3-19.3-24.3C908.1,243.3,899.5,283,899.5,302.5z"/>
			<path class="st1" d="M1055.3,209.8h64.6l-24.1,113.7h75.6l-15.1,40.5h-133.6L1055.3,209.8z"/>
			<path class="st1" d="M1273.9,209.8L1241.3,364h-64.4l32.6-154.2H1273.9z"/>
			<path class="st1" d="M1270.6,364l32.6-154.2h73.6c8.1,30.2,15.3,61.8,20.2,84.1h1.3c0.4-11.8,5.9-39.2,11.2-64.8l4.2-19.3h56.7
				L1437.8,364h-70.1c-5.7-23.9-16-70.8-21.3-95.1h-1.1c-1.5,18-7.4,46.2-13.1,73l-4.6,22.1H1270.6z"/>
			<path class="st1" d="M1528.7,340.8l-11.4,23.2h-65.9l83.7-154.2h85l22.8,154.2h-63.7l-2-23.2H1528.7z M1573.4,300.5
				c-1.1-12.3-2.4-35.7-3.3-50.2h-1.5c-5,14-14.2,35.7-20.6,50.2H1573.4z"/>
		</g>
	</g>
	
		<image style="overflow:visible;" width="539" height="619" xlink:href="163C3281.png"  transform="matrix(1.3877 0 0 1.3877 -548.1503 117.9564)">
	</image>
</g>
<g>
	<rect x="-960" y="1951.6" class="st0" width="1476" height="335"/>
	<g>
		<path class="st1" d="M-808.6,2209.9l-14.2,29H-905l104.4-192.3h106l28.4,192.3h-79.5l-2.5-29H-808.6z M-752.8,2159.7
			c-1.4-15.3-3-44.5-4.1-62.6h-1.9c-6.3,17.5-17.8,44.5-25.7,62.6H-752.8z M-651.5,1994.4l-65.6,38h-64.5l47.8-38H-651.5z"/>
		<path class="st1" d="M-609.1,2046.6h80.6l-30.1,141.8h94.3l-18.9,50.5h-166.7L-609.1,2046.6z"/>
		<path class="st1" d="M-235.1,2165.4c-12.6,48.4-48.1,78.4-118,78.4c-72.4,0-100.3-38.5-100.3-85c0-48.4,27.3-117.2,125.7-117.2
			c70.5,0,100,32.8,100.3,77.6h-78.1c1.4-18.6-3.8-31.1-21.3-31.1c-32.5,0-41.5,52.5-41.5,74.3c0,21.6,7.9,32.5,23.2,32.5
			c14.2,0,26-8.2,33.9-29.5H-235.1z"/>
		<path class="st1" d="M20.6,2128.5c0,65.6-43.2,115.3-129,115.3c-79,0-104.9-41.8-104.9-85.5c0-56.8,35.8-116.7,126.5-116.7
			C-8.9,2041.6,20.6,2085.3,20.6,2128.5z M-128.3,2162.1c0,16.7,4.6,32.8,23.2,32.8c32,0,41.3-50,41.3-76.2c0-18-6.6-30.3-24-30.3
			C-117.6,2088.4-128.3,2137.8-128.3,2162.1z"/>
		<path class="st1" d="M270.9,2128.5c0,65.6-43.2,115.3-129,115.3c-79,0-104.9-41.8-104.9-85.5c0-56.8,35.8-116.7,126.5-116.7
			C241.3,2041.6,270.9,2085.3,270.9,2128.5z M122,2162.1c0,16.7,4.6,32.8,23.2,32.8c32,0,41.3-50,41.3-76.2c0-18-6.6-30.3-24-30.3
			C132.6,2088.4,122,2137.8,122,2162.1z"/>
		<path class="st1" d="M316.2,2046.6h80.6l-30.1,141.8H461l-18.9,50.5H275.5L316.2,2046.6z"/>
	</g>
</g>
<g>
	<linearGradient id="SVGID_3_" gradientUnits="userSpaceOnUse" x1="-336.6109" y1="2465" x2="-336.6109" y2="2279">
		<stop  offset="0" style="stop-color:#EF6C00"/>
		<stop  offset="1" style="stop-color:#2E7D32"/>
	</linearGradient>
	<path class="st6" d="M-229,2358.9c0,60.3-39.7,106.1-118.6,106.1c-72.6,0-96.5-38.5-96.5-78.7c0-52.3,32.9-107.3,116.4-107.3
		C-256.2,2279-229,2319.2-229,2358.9z M-366,2389.8c0,15.3,4.3,30.2,21.4,30.2c29.4,0,38-46,38-70.1c0-16.6-6-27.9-22.1-27.9
		C-356.2,2322-366,2367.5-366,2389.8z"/>
	<linearGradient id="SVGID_4_" gradientUnits="userSpaceOnUse" x1="-105.9506" y1="2465" x2="-105.9506" y2="2283.5244">
		<stop  offset="0" style="stop-color:#EF6C00"/>
		<stop  offset="1" style="stop-color:#2E7D32"/>
	</linearGradient>
	<path class="st7" d="M-113.7,2283.5l-23.1,107.3c-4.8,21.6,6.3,26.1,15.1,26.1c17.1,0,22.1-11.3,25.1-26.1l23.1-107.3H0.2
		l-22.9,106.3c-10.3,49.3-31.7,75.2-105.8,75.2c-63.6,0-92.5-24.6-81.2-76.7l22.4-104.8H-113.7z"/>
</g>
<g>
	<rect x="-960" y="2457.4" class="st8" width="1476" height="335"/>
	<g>
		<path class="st1" d="M-745.3,2702h-41.4c-1.1-3.5-1.3-8.5-1.3-12.5c-9.9,10.1-23.4,16.4-49.3,16.4c-48.2,0-67.5-31.5-67.5-67
			c0-46.4,30.5-95.1,100.8-95.1c46.7,0,77.6,17.5,80.6,51.5h-61.8c-0.7-7.4-5-14.2-18.4-14.2c-24.3,0-33.1,37-33.1,57
			c0,16.9,5.3,28.7,18.8,28.7c14.9,0,19.3-10.1,21.3-16l0.2-0.7h-22.8l12.7-39.7h80.4L-745.3,2702z"/>
		<path class="st1" d="M-654.2,2678.8l-11.4,23.2h-65.9l83.7-154.2h85l22.8,154.2h-63.7l-2-23.2H-654.2z M-609.5,2638.5
			c-1.1-12.3-2.4-35.7-3.3-50.2h-1.5c-5,14-14.2,35.7-20.6,50.2H-609.5z"/>
		<path class="st1" d="M-468.4,2654.7c0.4,6.6,4.8,14.2,19.3,14.2c7.9,0,14-2.4,14-9.2c0-5.3-1.3-9.6-23.9-15.1
			c-42.7-10.5-54.1-25.6-54.1-46.9c0-34.6,32-53.9,75.4-53.9c50.6,0,76.5,18.6,77.6,49.3h-58.1c-0.7-6.6-3.7-12.7-15.6-12.7
			c-6.4,0-11.6,3.5-11.6,9.2c0,5.9,5.9,9.2,21,12.7c44.3,10.5,58.9,25.6,58.9,49.3c0,35.3-34.2,54.3-83.5,54.3
			c-50.2,0-76.2-18.2-79.7-51.3H-468.4z"/>
		<path class="st1" d="M-163.1,2613.5c0,52.6-34.6,92.4-103.4,92.4c-63.3,0-84.1-33.5-84.1-68.6c0-45.6,28.7-93.5,101.4-93.5
			C-186.7,2543.9-163.1,2578.9-163.1,2613.5z M-282.5,2640.5c0,13.4,3.7,26.3,18.6,26.3c25.6,0,33.1-40.1,33.1-61.1
			c0-14.5-5.3-24.3-19.3-24.3C-273.9,2581.3-282.5,2621-282.5,2640.5z"/>
		<path class="st1" d="M-126.7,2547.8h64.6l-24.1,113.7h75.6l-15.1,40.5h-133.6L-126.7,2547.8z"/>
		<path class="st1" d="M91.9,2547.8L59.3,2702H-5.1l32.6-154.2H91.9z"/>
		<path class="st1" d="M88.6,2702l32.6-154.2h73.6c8.1,30.2,15.3,61.8,20.2,84.1h1.3c0.4-11.8,5.9-39.2,11.2-64.8l4.2-19.3h56.7
			L255.8,2702h-70.1c-5.7-23.9-16-70.8-21.3-95.1h-1.1c-1.5,18-7.4,46.2-13.1,73l-4.6,22.1H88.6z"/>
		<path class="st1" d="M346.7,2678.8l-11.4,23.2h-65.9l83.7-154.2h85l22.8,154.2h-63.7l-2-23.2H346.7z M391.4,2638.5
			c-1.1-12.3-2.4-35.7-3.3-50.2h-1.5c-5,14-14.2,35.7-20.6,50.2H391.4z"/>
	</g>
</g>
</svg>
